<svg width="23" height="24" viewBox="0 0 23 24" fill="none" xmlns="http://www.w3.org/2000/svg">
<path d="M14.5341 0.904695C13.5157 0.583862 12.6453 1.69685 13.1851 2.61852C14.0379 4.07218 14.4976 5.71253 14.4976 7.35753C14.4976 12.5119 10.3189 16.6908 5.16424 16.6908C4.19369 16.6908 3.21206 16.5333 2.32049 16.2533C1.30211 15.9325 0.395144 17.0455 0.935077 17.9672C3.00883 21.5045 6.79898 23.6908 10.9976 23.6908C17.4408 23.6908 22.6642 18.4677 22.6642 12.0242C22.6642 6.88969 19.3503 2.41903 14.5341 0.904695ZM16.3934 4.40469C18.8015 6.10685 20.3309 8.91269 20.3309 12.0242C20.3309 17.1785 16.1523 21.3575 10.9976 21.3575C8.63146 21.3575 6.46869 20.4475 4.79966 18.9518C4.92414 18.9553 5.04023 19.0242 5.16424 19.0242C11.6076 19.0242 16.8309 13.801 16.8309 7.35753C16.8309 6.35769 16.6536 5.36836 16.3934 4.40469Z" fill="white"/>
</svg>
