<svg width="23" height="23" viewBox="0 0 23 23" fill="none" xmlns="http://www.w3.org/2000/svg">
<path d="M9.68319 0.278687C4.5285 0.278687 0.349854 4.4577 0.349854 9.61205C0.349854 14.7664 4.5285 18.9454 9.68319 18.9454C11.826 18.9454 13.8571 18.2092 15.4324 16.9959L20.5112 22.1176C20.9669 22.5726 21.7328 22.5726 22.1885 22.1176C22.644 21.6614 22.644 20.8961 22.1885 20.4399L17.0744 15.3532C18.2886 13.7782 19.0165 11.7552 19.0165 9.61205C19.0165 4.4577 14.8379 0.278687 9.68319 0.278687ZM9.68319 2.61203C13.5492 2.61203 16.6832 5.7457 16.6832 9.61205C16.6832 13.4784 13.5492 16.6121 9.68319 16.6121C5.8172 16.6121 2.68319 13.4784 2.68319 9.61205C2.68319 5.7457 5.8172 2.61203 9.68319 2.61203Z" fill="#6B9080"/>
</svg>
