<svg width="28" height="28" viewBox="0 0 28 28" fill="none" xmlns="http://www.w3.org/2000/svg">
<path d="M24.5165 8.15587C24.5165 5.5787 22.427 3.4892 19.8499 3.4892H15.1832C12.606 3.4892 10.5165 5.5787 10.5165 8.15587C10.5165 8.79987 11.0392 9.32253 11.6832 9.32253C12.3272 9.32253 12.8499 8.79987 12.8499 8.15587C12.8499 6.8667 13.894 5.82253 15.1832 5.82253H19.8499C21.139 5.82253 22.1832 6.8667 22.1832 8.15587V19.8225C22.1832 21.1117 21.139 22.1559 19.8499 22.1559H15.1832C13.894 22.1559 12.8499 21.1117 12.8499 19.8225C12.8499 19.1785 12.3272 18.6559 11.6832 18.6559C11.0392 18.6559 10.5165 19.1785 10.5165 19.8225C10.5165 22.3997 12.606 24.4892 15.1832 24.4892H19.8499C22.427 24.4892 24.5165 22.3997 24.5165 19.8225V8.15587ZM16.3499 13.9892C16.3499 13.3452 15.8272 12.8225 15.1832 12.8225H7.01652V9.32253L2.34985 13.9892L7.01652 18.6559V15.1559H15.1832C15.8272 15.1559 16.3499 14.6332 16.3499 13.9892Z" fill="white"/>
</svg>
