<svg width="32" height="32" viewBox="0 0 32 32" fill="none" xmlns="http://www.w3.org/2000/svg">
<path d="M15.9987 2.60419C8.63469 2.60419 2.6907 8.57351 2.66536 15.9375C2.64003 23.2908 8.64136 29.2975 15.9987 29.3122C23.356 29.3268 29.3453 23.2388 29.332 15.9375C29.3187 8.57351 23.3627 2.60419 15.9987 2.60419ZM15.9987 5.27085C21.8893 5.27085 26.6653 10.0468 26.6653 15.9375C26.6653 18.9375 25.416 21.6415 23.4227 23.5802C22.44 21.4562 20.332 19.9375 17.9147 19.9375C17.436 19.9375 14.5614 19.9375 14.0814 19.9375C11.668 19.9375 9.56404 21.4375 8.58137 23.5628C6.58938 21.6242 5.33203 18.9375 5.33203 15.9375C5.33203 10.0468 10.108 5.27085 15.9987 5.27085ZM15.9987 7.93752C13.0534 7.93752 10.6654 10.3255 10.6654 13.2708C10.6654 16.2162 13.0534 18.6042 15.9987 18.6042C18.944 18.6042 21.332 16.2162 21.332 13.2708C21.332 10.3255 18.944 7.93752 15.9987 7.93752ZM15.9987 10.6042C17.472 10.6042 18.6654 11.7975 18.6654 13.2708C18.6654 14.7442 17.472 15.9375 15.9987 15.9375C14.5254 15.9375 13.332 14.7442 13.332 13.2708C13.332 11.7975 14.5254 10.6042 15.9987 10.6042ZM14.0814 22.6042C14.5614 22.6042 17.436 22.6042 17.9147 22.6042C19.4027 22.6042 20.7493 23.6895 21.2213 25.2188C19.3173 26.3428 17.1907 26.6042 15.9987 26.6042C14.7747 26.6042 12.744 26.3295 10.792 25.2535C11.26 23.7108 12.6067 22.6042 14.0814 22.6042Z" fill="#6B9080"/>
</svg>
